<?xml version="1.0" encoding="UTF-8"?>
<!DOCTYPE svg PUBLIC "-//W3C//DTD SVG 1.1//EN" "http://www.w3.org/Graphics/SVG/1.1/DTD/svg11.dtd">
<!-- Creator: CorelDRAW 2021 (64 Bit) -->
<svg xmlns="http://www.w3.org/2000/svg" xml:space="preserve" width="15.3502cm" height="5.42425cm" version="1.1" style="shape-rendering:geometricPrecision; text-rendering:geometricPrecision; image-rendering:optimizeQuality; fill-rule:evenodd; clip-rule:evenodd"
viewBox="0 0 56209.34 19862.47"
 xmlns:xlink="http://www.w3.org/1999/xlink"
 xmlns:xodm="http://www.corel.com/coreldraw/odm/2003">
 <defs>
  <style type="text/css">
   <![CDATA[
    .fil0 {fill:#E6E7E8}
    .fil2 {fill:#0987FF}
    .fil1 {fill:#E33E2B}
    .fil3 {fill:#FFCC29}
    .fil4 {fill:#373435;fill-rule:nonzero}
   ]]>
  </style>
 </defs>
 <g id="Camada_x0020_1">
  <metadata id="CorelCorpID_0Corel-Layer"/>
  <g id="_2890848540608">
   <path class="fil0" d="M44211.99 14727.1l9639.78 0c1296.68,0 2357.57,1060.89 2357.57,2357.57l0 0c0,1296.68 -1060.89,2357.57 -2357.57,2357.57l-9639.78 0c-1296.64,0 -2357.57,-1060.89 -2357.57,-2357.57l0 0c0,-1296.68 1060.89,-2357.57 2357.57,-2357.57z"/>
   <path class="fil1" d="M14259.31 7336.91c257.72,330.59 508.92,718.44 740.41,1183.42 97.99,196.75 242.45,564.94 344.1,826.61l303.78 673.04c18.64,31.78 64.67,91.95 80.49,117.14 15.86,25.23 52.07,80.05 83.89,115.31 2653.3,-3503.6 6581.45,-1724.81 7289.02,913.76 960.16,3580.61 -3175.73,6742.82 -6188.06,4248.08 -2746.16,-2274.41 -481.34,-5006.07 -3686,-8445.89 -2752.35,-2954.33 -8598.88,-2712.03 -8929.83,-1214.07l7.8 4237.46c1184.55,-1336.26 3387.74,-2297.37 5424.07,-1086.78 2360.39,1403.16 1345.49,2952.58 2280.53,5731.95 2167.12,6441.79 11233.42,7199.3 14222.54,749.09 928.74,-2004.03 848.4,-4549.37 -87.77,-6462.62 -826.65,-1689.51 -2388.44,-3060.42 -4254.27,-3772.12 -2994.32,-1111.02 -6377.45,-174.41 -7630.51,2185.61l-0.18 0z"/>
   <path class="fil2" d="M12993.98 17654.56c-318.17,-451.87 -693.91,-939.03 -1032.08,-1592.92 -299.31,-578.64 -528.4,-1365.7 -825.62,-1859.42 -2222.34,3192.39 -7485.32,3042.84 -7465.92,-3165.84 12.63,-4045.07 1151.3,-11394.58 -3650.66,-10950 16.04,2865.9 1.79,5735.79 1.79,8602.13 0,2941.3 -276.87,5274.74 1157.53,7587.78 2841.37,4582.07 8994.64,4444.06 11814.95,1378.26z"/>
   <path class="fil3" d="M14259.46 7336.91c-76.38,-3396.35 790.62,-6981.39 -2633.34,-7336.91l0.07 4776.22c350.14,797.17 1550.07,1171.11 2633.27,2560.69z"/>
   <path class="fil4" d="M28695.96 7445.3l0 -6254.16 987.18 0c573.44,0 991.54,36.29 1257.24,110.33 375.99,100.19 675.05,284.56 897.18,553.11 222.12,270.02 333.88,587.97 333.88,953.82 0,238.09 -50.79,454.39 -150.98,648.91 -100.15,194.55 -264.2,377.46 -490.68,547.33 378.92,178.55 656.19,400.67 831.85,669.27 175.66,267.13 262.77,583.58 262.77,949.43 0,351.35 -91.47,670.73 -272.91,959.61 -182.94,288.92 -418.1,505.22 -705.55,647.48 -287.45,143.73 -683.8,214.87 -1190.45,214.87l-1759.53 0zm1184.63 -5121.78l0 1323.99 265.66 0c296.17,0 516.83,-60.97 660.55,-184.37 143.73,-121.94 214.87,-288.92 214.87,-499.4 0,-195.98 -68.26,-351.35 -204.69,-467.46 -136.47,-114.69 -344.06,-172.76 -622.8,-172.76l-313.6 0zm0 2386.68l0 1602.73 301.95 0c500.86,0 839.14,-62.43 1013.33,-187.26 174.23,-124.87 261.34,-306.35 261.34,-544.4 0,-268.59 -101.65,-482 -306.35,-637.33 -204.69,-155.33 -544.4,-233.73 -1019.11,-233.73l-251.16 0zm3954.59 -3519.05l1264.45 0c691.05,0 1184.66,60.97 1477.9,184.37 294.7,123.4 529.9,329.56 708.45,615.55 178.59,285.99 268.59,624.26 268.59,1016.22 0,410.85 -98.72,754.91 -294.7,1030.76 -197.44,277.27 -493.61,486.32 -889.93,627.16l1476.43 2780.11 -1300.78 0 -1405.32 -2647.99 -120.47 0 0 2647.99 -1184.63 0 0 -6254.16zm1184.63 2447.65l377.46 0c383.24,0 646.01,-49.36 791.2,-149.51 143.73,-100.19 216.3,-265.7 216.3,-497.97 0,-136.47 -36.29,-255.52 -107.44,-357.13 -71.11,-101.61 -166.94,-174.19 -287.45,-217.77 -119.04,-45 -339.7,-66.75 -660.55,-66.75l-329.52 0 0 1289.13zm5701.04 -2447.65l1199.13 0 2407.01 6254.16 -1238.34 0 -487.79 -1289.17 -2563.8 0 -499.4 1289.17 -1238.34 0 2421.54 -6254.16zm601.01 1662.27l-847.81 2152.95 1691.27 0 -843.46 -2152.95zm7213.77 -811.53l-882.67 778.13c-309.2,-429.71 -624.23,-644.59 -945.07,-644.59 -156.8,0 -284.56,42.11 -383.28,124.87 -100.15,84.18 -149.51,178.55 -149.51,283.09 0,104.51 34.82,204.69 105.97,297.59 97.26,124.87 389.07,391.96 875.39,802.81 454.43,380.35 730.23,619.9 827.53,718.63 240.98,243.91 412.28,476.18 513.9,698.3 100.19,223.55 150.98,466 150.98,728.77 0,513.93 -177.08,936.39 -532.79,1271.74 -354.21,333.88 -817.31,500.86 -1389.32,500.86 -445.68,0 -833.31,-108.9 -1164.3,-326.67 -330.99,-219.19 -615.55,-561.83 -850.71,-1029.29l1003.15 -603.9c301.95,551.65 648.94,827.49 1040.9,827.49 204.69,0 377.46,-59.54 516.83,-178.59 139.37,-119.04 209.05,-256.95 209.05,-412.28 0,-140.83 -52.25,-283.09 -158.23,-425.35 -104.54,-140.83 -336.81,-358.6 -695.41,-650.41 -682.3,-554.54 -1122.19,-982.82 -1321.1,-1284.78 -198.87,-301.99 -299.06,-602.51 -299.06,-903 0,-434.07 165.51,-805.74 495.07,-1114.94 330.99,-310.7 738.91,-466.04 1223.81,-466.04 312.13,0 609.72,72.61 891.39,216.34 283.09,145.15 587.94,407.92 917.5,791.2zm1158.52 -850.74l1184.63 0 0 6254.16 -1184.63 0 0 -6254.16zm2515.91 0l1184.63 0 0 5121.78 1750.81 0 0 1132.37 -2935.44 0 0 -6254.16z"/>
   <path class="fil4" d="M28601.41 9880.54l716.1 0c288.48,0 510.31,33.73 664.65,102.05 155.22,68.33 277.53,173.75 366.91,315.46 90.26,140.87 134.97,298.58 134.97,470.65 0,161.96 -39.66,308.73 -118.09,441.14 -78.44,132.45 -194,239.55 -345.82,322.24 188.95,64.08 334.03,139.15 435.24,226.04 102.05,86.02 180.49,190.63 236.99,313.78 56.54,122.3 85.21,255.56 85.21,398.95 0,291.84 -106.27,538.98 -319.67,740.6 -213.41,201.58 -499.36,302.79 -858.65,302.79l-997.84 0 0 -3633.71zm354.24 354.24l0 1164.01 208.36 0c253.03,0 439.45,-23.62 558.39,-70.01 118.9,-47.24 213.37,-121.46 282.54,-222.67 70.01,-101.21 104.58,-214.25 104.58,-337.4 0,-166.17 -58.19,-296.9 -174.59,-392.21 -117.21,-94.47 -302.79,-141.71 -557.54,-141.71l-421.73 0zm0 1528.4l0 1396.79 451.28 0c265.7,0 460.54,-26.15 584.53,-77.59 123.99,-52.29 223.52,-134.09 298.58,-244.61 75.07,-110.48 113.04,-230.25 113.04,-358.49 0,-161.92 -53.17,-303.64 -158.59,-424.26 -105.42,-119.78 -250.5,-202.42 -435.24,-247.13 -123.99,-29.51 -339.92,-44.71 -647.77,-44.71l-205.83 0zm2546.45 -1882.64l2080.04 0 0 354.24 -1715.66 0 0 1138.71 1700.46 0 0 354.28 -1700.46 0 0 1432.2 1700.46 0 0 354.28 -2064.85 0 0 -3633.71zm2713.5 3633.71l0 -3633.71 78.47 0 2416.56 2779.26 0 -2779.26 364.38 0 0 3633.71 -82.68 0 -2402.21 -2754.8 0 2754.8 -374.53 0zm3743.38 -3633.71l2080.04 0 0 354.24 -1715.66 0 0 1138.71 1700.46 0 0 354.28 -1700.46 0 0 1432.2 1700.46 0 0 354.28 -2064.85 0 0 -3633.71zm2708.44 0l1821.92 0 0 354.24 -1457.54 0 0 1138.71 1457.54 0 0 354.28 -1457.54 0 0 1786.48 -364.38 0 0 -3633.71zm2403.09 0l364.38 0 0 3633.71 -364.38 0 0 -3633.71zm350.03 -1047.6l530.56 0 -727.09 759.13 -340.77 0 537.29 -759.13zm4230.06 1718.15l-286.79 220.15c-157.71,-205.79 -347.5,-361.86 -569.34,-468.12 -220.99,-106.27 -463.91,-159.43 -729.61,-159.43 -289.32,0 -557.54,70.01 -804.68,209.2 -247.13,139.18 -437.77,326.41 -573.58,560.91 -135.78,234.5 -204.11,499.36 -204.11,792.05 0,443.66 151.82,813.94 455.49,1110 303.64,296.9 686.59,445.38 1149.66,445.38 508.62,0 933.72,-199.09 1276.17,-597.2l286.79 217.62c-181.33,230.25 -407.37,409.1 -678.16,534.77 -270.75,125.67 -573.55,188.95 -907.58,188.95 -635.98,0 -1137.87,-211.72 -1504.78,-635.14 -307.85,-356.8 -462.23,-788.68 -462.23,-1293.93 0,-531.36 186.42,-979.27 559.23,-1341.97 373.69,-363.54 840.97,-544.87 1402.72,-544.87 339.08,0 645.24,66.64 918.56,199.9 273.28,134.13 497.64,321.36 672.23,561.76zm678.16 -670.55l364.38 0 0 3633.71 -364.38 0 0 -3633.71zm2926.87 -91.11c549.96,0 1010.51,183.86 1380.79,550.81 370.28,366.91 555.86,819 555.86,1355.45 0,532.24 -184.74,983.52 -554.18,1353.8 -370.28,370.28 -820.72,555.86 -1352.92,555.86 -538.17,0 -992.78,-184.74 -1363.1,-553.33 -370.28,-368.6 -555.82,-814.79 -555.82,-1338.6 0,-349.19 84.33,-672.27 253.03,-970.85 168.7,-297.74 398.95,-531.4 690.8,-700.1 291,-168.7 606.47,-253.03 945.55,-253.03zm16.04 354.24c-268.23,0 -522.98,70.01 -764.18,210.04 -240.4,140.03 -428.5,328.13 -564.32,565.12 -134.94,237.87 -202.42,501.89 -202.42,793.73 0,431.03 149.29,795.41 448.72,1092.31 299.46,297.74 660.48,446.19 1082.21,446.19 282.58,0 543.19,-68.33 782.74,-204.95 240.4,-136.66 427.66,-323.92 561.76,-560.91 134.13,-237.03 201.62,-500.2 201.62,-790.36 0,-288.48 -67.49,-549.09 -201.62,-781.9 -134.09,-232.78 -323.89,-419.2 -567.65,-559.23 -243.77,-140.03 -502.73,-210.04 -776.85,-210.04zm2275.73 2690.72l308.69 -185.58c217.62,401.52 469,602.25 754.07,602.25 122.3,0 237.03,-28.67 344.17,-85.17 107.11,-56.54 188.91,-133.29 244.61,-228.61 56.5,-95.32 84.33,-196.53 84.33,-303.64 0,-121.46 -41.34,-240.4 -123.99,-357.65 -113.88,-161.12 -321.36,-355.96 -624.19,-582.85 -303.64,-229.41 -492.58,-394.74 -566.81,-496.8 -129.04,-171.23 -193.16,-356.8 -193.16,-555.86 0,-157.75 37.97,-301.99 113.88,-431.87 75.91,-129.88 183.02,-231.94 321.36,-307 138.34,-75.1 287.63,-112.2 449.56,-112.2 172.1,0 333.19,42.18 482.48,127.36 149.29,84.37 307.88,240.4 474.9,467.28l-296.9 225.24c-137.5,-181.37 -254.75,-301.15 -351.75,-358.49 -97,-58.22 -202.42,-86.89 -316.31,-86.89 -147.61,0 -268.23,44.71 -361.86,133.29 -93.63,89.38 -140.87,198.21 -140.87,328.94 0,78.47 16.88,155.22 49.8,229.45 32.88,74.22 93.6,154.34 181.33,242.08 47.24,45.55 204.95,167.01 471.49,362.7 315.46,232.78 532.24,439.45 649.49,619.94 117.25,181.37 176.28,363.54 176.28,546.6 0,263.14 -100.37,492.58 -300.27,686.59 -200.74,194.84 -444.5,291.84 -731.3,291.84 -220.99,0 -421.73,-59.06 -601.41,-177.16 -179.65,-118.06 -345.82,-316.31 -497.64,-593.8z"/>
   <path class="fil4" d="M44122.35 18069.4c97.26,0 179.98,33.69 248.89,101.83 68.15,68.15 102.6,150.87 102.6,248.12 0,97.99 -34.46,180.71 -102.6,249.62 -68.91,68.91 -151.63,103.37 -248.89,103.37 -97.22,0 -179.94,-34.46 -248.86,-103.37 -68.15,-68.91 -102.6,-151.63 -102.6,-249.62 0,-97.26 34.46,-179.98 102.6,-248.12 68.91,-68.15 151.63,-101.83 248.86,-101.83zm3341.75 -1300.27l-509.21 280.27c-95.72,-100.3 -189.94,-169.21 -283.35,-208.28 -93.41,-39.03 -202.94,-58.19 -328.5,-58.19 -228.97,0 -414.26,68.15 -555.16,203.67 -141.67,136.33 -212.13,310.15 -212.13,523.01 0,206.74 68.15,375.22 203.71,506.17 136.29,130.95 314.69,196.05 536.01,196.05 273.39,0 486.25,-93.45 639.42,-280.27l481.64 330.81c-261.89,340 -630.96,509.98 -1108.02,509.98 -429.6,0 -765.75,-127.1 -1008.53,-380.57 -242.74,-253.47 -364.49,-549.82 -364.49,-889.82 0,-235.86 58.99,-452.56 176.9,-650.88 118.68,-198.32 283.31,-354.53 495.44,-467.87 211.36,-113.33 447.98,-170.02 709.87,-170.02 242.74,0 460.21,48.26 653.15,144.75 192.98,96.49 350.73,233.55 473.25,411.18zm487.79 -1438.06l611.08 0 0 3381.55 -611.08 0 0 -3381.55zm1165.48 941.85l620.23 0 0 1173.16c0,228.17 16.08,386.69 47.49,475.52 31.38,88.84 81.91,157.75 151.6,207.51 69.68,48.99 156.25,73.53 258.08,73.53 101.83,0 189.13,-24.53 260.35,-72.76 71.22,-48.23 124.06,-119.45 158.52,-213.63 25.27,-70.45 38.27,-220.55 38.27,-450.29l0 -1193.05 611.08 0 0 1032.26c0,425.76 -33.69,716.72 -101.07,873.7 -81.95,191.44 -203.71,337.73 -363.76,440.33 -160.02,101.83 -363.73,153.14 -610.27,153.14 -268.04,0 -483.98,-59.72 -649.38,-179.17 -165.4,-119.48 -281.77,-285.62 -349.19,-499.29 -48.23,-147.79 -71.95,-416.57 -71.95,-806.33l0 -1014.65zm3368.52 -941.85l0 1211.39c110.29,-109.49 229.74,-192.21 358.38,-247.32 128.64,-54.38 266.51,-81.95 412.76,-81.95 317.77,0 588.08,120.22 810.94,359.92 222.82,240.43 333.85,548.28 333.85,924.27 0,362.19 -114.87,665.42 -345.34,908.93 -229.74,244.28 -502.32,366.03 -817.82,366.03 -140.14,0 -271.08,-25.27 -392.07,-75.03 -120.99,-49.8 -241.2,-130.95 -360.69,-244.28l0 259.58 -611.04 0 0 -3381.55 611.04 0zm641.73 1442.67c-192.21,0 -352.26,65.84 -478.6,196.78 -127.14,131.71 -190.67,303.23 -190.67,515.36 0,216.7 63.53,392.07 190.67,525.32 126.33,133.98 286.39,200.63 478.6,200.63 186.82,0 343.81,-68.18 471.68,-203.71 127.91,-136.29 191.44,-309.35 191.44,-519.94 0,-209.05 -62.76,-380.61 -188.36,-513.82 -124.83,-134.02 -283.31,-200.63 -474.75,-200.63z"/>
  </g>
 </g>
</svg>
